<svg xmlns="http://www.w3.org/2000/svg" xmlns:xlink="http://www.w3.org/1999/xlink" version="1.1" width="1000" height="1000" viewBox="0 0 1000 1000" xml:space="preserve">
<desc>Created with Fabric.js 3.5.0</desc>
<defs>
</defs>
<rect x="0" y="0" width="100%" height="100%" fill="#ffffff"/>
<g transform="matrix(0.2813 0 0 0.2813 54.4561 54.4561)" id="150502">
<g style="" vector-effect="non-scaling-stroke">
		<g transform="matrix(1 0 0 1 0 0.0071)" id="policy">
<path style="stroke: none; stroke-width: 1; stroke-dasharray: none; stroke-linecap: butt; stroke-dashoffset: 0; stroke-linejoin: miter; stroke-miterlimit: 4; is-custom-font: none; font-file-url: none; fill: rgb(34,34,34); fill-rule: nonzero; opacity: 1;" transform=" translate(-32, -32.0071)" d="M 32 59.37 a 2 2 0 0 1 -0.59 -0.09 c -1.77 -0.55 -12.45 -6 -17.84 -13.41 C 8.35 38.7 8.46 23.61 9 12.88 a 1 1 0 0 1 0.37 -0.73 a 1 1 0 0 1 0.78 -0.21 c 0.12 0 12.45 1.72 21.14 -7 a 1 1 0 0 1 1.42 0 c 8.69 8.74 21 7 21.14 7 a 1 1 0 0 1 0.78 0.21 a 1 1 0 0 1 0.37 0.73 c 0.54 10.73 0.65 25.82 -4.57 33 c -5.43 7.39 -16.07 12.85 -17.84 13.4 a 2 2 0 0 1 -0.59 0.09 Z M 11 14 c -0.48 10.34 -0.45 24.23 4.23 30.66 c 5.09 7 15.37 12.23 16.82 12.68 c 1.45 -0.45 11.73 -5.7 16.82 -12.68 c 4.63 -6.4 4.66 -20.29 4.18 -30.66 c -3.29 0.25 -13.2 0.3 -21 -7 c -7.9 7.32 -17.82 7.28 -21.05 7 Z" stroke-linecap="round"/>
</g>
		<g transform="matrix(1 0 0 1 0.013 0.0017)" id="policy">
<path style="stroke: none; stroke-width: 1; stroke-dasharray: none; stroke-linecap: butt; stroke-dashoffset: 0; stroke-linejoin: miter; stroke-miterlimit: 4; is-custom-font: none; font-file-url: none; fill: rgb(34,34,34); fill-rule: nonzero; opacity: 1;" transform=" translate(-32.013, -32.0017)" d="M 29.53 38.59 a 1 1 0 0 1 -0.72 -0.31 l -5.24 -5.36 a 1 1 0 1 1 1.43 -1.4 l 4.5 4.61 L 39 25.74 a 1 1 0 1 1 1.48 1.35 L 30.27 38.26 a 1.05 1.05 0 0 1 -0.72 0.33 Z" stroke-linecap="round"/>
</g>
</g>
</g>
</svg>